<svg xmlns="http://www.w3.org/2000/svg" viewBox="0 0 64 64" fill="none">
  <rect width="64" height="64" rx="14" fill="#1a1413"/>
  <path d="M32 10c-12 0-22 9.7-22 21.7v5.4c0 10 8.1 18.1 18.1 18.1h7.8c10 0 18.1-8.1 18.1-18.1v-5.4C54 19.7 44 10 32 10z" fill="#e8a572"/>
  <circle cx="14" cy="20" r="6" fill="#e8a572"/>
  <circle cx="50" cy="20" r="6" fill="#e8a572"/>
  <circle cx="22" cy="32" r="3" fill="#1a1413"/>
  <circle cx="42" cy="32" r="3" fill="#1a1413"/>
  <ellipse cx="32" cy="44" rx="10" ry="7" fill="#fff5ec"/>
  <ellipse cx="32" cy="40.5" rx="2.4" ry="1.6" fill="#1a1413"/>
  <path d="M28 46c1.5 1.5 6.5 1.5 8 0" stroke="#1a1413" stroke-width="1.6" stroke-linecap="round"/>
</svg>
